<svg width="25" height="25" viewBox="0 0 25 25" fill="none" xmlns="http://www.w3.org/2000/svg">
<path fill-rule="evenodd" clip-rule="evenodd" d="M8.66266 0H16.3373C23.3416 0 25 1.65843 25 8.66266V16.3373C25 23.3416 23.3416 25 16.3373 25H8.66266C1.65843 25 0 23.3416 0 16.3373V8.66266C0 1.65843 1.65843 0 8.66266 0Z" fill="#CDE5D8"/>
<path d="M12.1358 6.68115C12.6085 6.68115 13.0618 6.86892 13.396 7.20315C13.7303 7.53739 13.918 7.9907 13.918 8.46338C13.918 8.93605 13.7303 9.38937 13.396 9.7236C13.0618 10.0578 12.6085 10.2456 12.1358 10.2456C11.6631 10.2456 11.2098 10.0578 10.8756 9.7236C10.5413 9.38937 10.3536 8.93605 10.3536 8.46338C10.3536 7.9907 10.5413 7.53739 10.8756 7.20315C11.2098 6.86892 11.6631 6.68115 12.1358 6.68115ZM12.1358 12.7603C14.5088 12.7603 16.4327 10.8315 16.4327 8.46338C16.4327 6.09521 14.504 4.1665 12.1358 4.1665C9.76763 4.1665 7.83892 6.09521 7.83892 8.46338C7.83892 10.8315 9.76763 12.7603 12.1358 12.7603ZM13.8741 16.271C14.7559 16.0715 15.5977 15.7249 16.3643 15.2456C16.5041 15.1571 16.6251 15.042 16.7204 14.9067C16.8157 14.7715 16.8834 14.6188 16.9196 14.4574C16.9559 14.296 16.96 14.129 16.9318 13.966C16.9035 13.803 16.8434 13.6471 16.7549 13.5073C16.6665 13.3675 16.5513 13.2465 16.4161 13.1513C16.2808 13.056 16.1281 12.9883 15.9667 12.952C15.8053 12.9157 15.6383 12.9116 15.4753 12.9399C15.3123 12.9681 15.1564 13.0282 15.0167 13.1167C14.1483 13.6593 13.145 13.947 12.1211 13.947C11.0972 13.947 10.0939 13.6593 9.22564 13.1167C9.08585 13.0282 8.93001 12.9681 8.767 12.9399C8.60399 12.9116 8.43701 12.9157 8.27559 12.952C8.11418 12.9883 7.96149 13.056 7.82624 13.1513C7.69099 13.2465 7.57584 13.3675 7.48736 13.5073C7.39886 13.6471 7.33877 13.803 7.31051 13.966C7.28225 14.129 7.28637 14.296 7.32264 14.4574C7.35892 14.6188 7.42663 14.7715 7.52192 14.9067C7.6172 15.042 7.73819 15.1571 7.87798 15.2456C8.65435 15.7339 9.48931 16.0757 10.3682 16.271L7.97564 18.6782C7.7393 18.9146 7.60653 19.2351 7.60653 19.5693C7.60653 19.9036 7.7393 20.2241 7.97564 20.4604C8.21198 20.6968 8.53252 20.8296 8.86675 20.8296C9.20098 20.8296 9.52153 20.6968 9.75787 20.4604L12.1211 18.0923L14.4844 20.4556C14.6014 20.5726 14.7403 20.6655 14.8932 20.7289C15.0461 20.7923 15.21 20.8249 15.3755 20.8249C15.5411 20.8249 15.7049 20.7923 15.8578 20.7289C16.0107 20.6655 16.1497 20.5726 16.2667 20.4556C16.3837 20.3386 16.4766 20.1997 16.54 20.0468C16.6033 19.8939 16.636 19.73 16.636 19.5645C16.636 19.3989 16.6033 19.235 16.54 19.0821C16.4766 18.9292 16.3837 18.7903 16.2667 18.6733L13.8594 16.2661" fill="#333333"/>
</svg>
