<svg width="25" height="25" viewBox="0 0 25 25" fill="none" xmlns="http://www.w3.org/2000/svg">
<path fill-rule="evenodd" clip-rule="evenodd" d="M8.66266 0H16.3373C23.3416 0 25 1.65843 25 8.66266V16.3373C25 23.3416 23.3416 25 16.3373 25H8.66266C1.65843 25 0 23.3416 0 16.3373V8.66266C0 1.65843 1.65843 0 8.66266 0Z" fill="#CDE5D8"/>
<path d="M9.643 18.2135L9.87603 14.5776L16.2677 8.62943C16.5506 8.36297 16.2094 8.23404 15.8349 8.46612L7.94523 13.6149L4.53303 12.4974C3.80065 12.2826 3.79233 11.7582 4.69948 11.38L17.9904 6.08514C18.5979 5.80148 19.1805 6.23986 18.9475 7.20257L16.6838 18.2135C16.5257 18.9957 16.0679 19.1848 15.4354 18.8238L11.9899 16.1936L10.3338 17.8525C10.1423 18.0502 9.98422 18.2135 9.643 18.2135Z" fill="#333333"/>
</svg>
