<svg width="25" height="25" viewBox="0 0 25 25" fill="none" xmlns="http://www.w3.org/2000/svg">
<path fill-rule="evenodd" clip-rule="evenodd" d="M8.66266 0H16.3373C23.3416 0 25 1.65843 25 8.66266V16.3373C25 23.3416 23.3416 25 16.3373 25H8.66266C1.65843 25 0 23.3416 0 16.3373V8.66266C0 1.65843 1.65843 0 8.66266 0Z" fill="#CDE5D8"/>
<path fill-rule="evenodd" clip-rule="evenodd" d="M20.4338 7.97958C20.5573 7.59145 20.4338 7.30916 19.8868 7.30916H18.0696C17.6109 7.30916 17.3992 7.55614 17.2757 7.82083C17.2757 7.82083 16.3406 10.0791 15.035 11.5434C14.6116 11.9669 14.4175 12.108 14.1882 12.108C14.0646 12.108 13.9059 11.9669 13.9059 11.5787V7.96192C13.9059 7.50322 13.7648 7.2915 13.3766 7.2915H10.5185C10.2362 7.2915 10.0598 7.50322 10.0598 7.71494C10.0598 8.15603 10.7125 8.26187 10.7831 9.49687V12.1786C10.7831 12.7608 10.6773 12.8667 10.4479 12.8667C9.83038 12.8667 8.33074 10.5907 7.43095 7.99723C7.25449 7.48557 7.07809 7.2915 6.61939 7.2915H4.78449C4.25521 7.2915 4.16699 7.53854 4.16699 7.80317C4.16699 8.27952 4.78449 10.679 7.04277 13.8547C8.54246 16.0247 10.6773 17.1892 12.6003 17.1892C13.7648 17.1892 13.9059 16.9245 13.9059 16.4835V14.8427C13.9059 14.3134 14.0117 14.2252 14.3823 14.2252C14.6469 14.2252 15.1232 14.3663 16.1994 15.4072C17.4344 16.6422 17.6462 17.2068 18.3342 17.2068H20.1515C20.6807 17.2068 20.9278 16.9422 20.7866 16.4305C20.6278 15.9189 20.028 15.1779 19.2517 14.2957C18.8282 13.8018 18.1931 13.2548 17.999 12.9901C17.7344 12.6373 17.805 12.4962 17.999 12.1786C17.9814 12.1786 20.2044 9.03817 20.4338 7.97958Z" fill="#333333"/>
</svg>
