<svg width="25" height="25" viewBox="0 0 25 25" fill="none" xmlns="http://www.w3.org/2000/svg">
<path fill-rule="evenodd" clip-rule="evenodd" d="M8.66266 0H16.3373C23.3416 0 25 1.65843 25 8.66266V16.3373C25 23.3416 23.3416 25 16.3373 25H8.66266C1.65843 25 0 23.3416 0 16.3373V8.66266C0 1.65843 1.65843 0 8.66266 0Z" fill="#CDE5D8"/>
<path d="M12.5954 18C10.9099 17.9446 9.30706 17.9014 7.70419 17.8367C7.35882 17.8213 7.00755 17.7659 6.67104 17.6827C6.03934 17.5287 5.60246 17.1313 5.37812 16.4814C5.19806 15.9577 5.13312 15.4187 5.08589 14.8704C4.98257 13.5828 4.98257 12.2952 5.03275 11.0077C5.06227 10.2807 5.07998 9.54759 5.26595 8.8422C5.37812 8.42019 5.51391 8.00743 5.84157 7.70248C6.18693 7.37904 6.59134 7.18498 7.05183 7.16342C8.31523 7.09873 9.57567 7.01865 10.8391 7.00632C12.5393 6.98784 14.2426 7.01249 15.9428 7.04637C16.6779 7.06177 17.4188 7.10182 18.1479 7.20039C18.815 7.2928 19.3139 7.68092 19.5795 8.35859C19.7832 8.87916 19.86 9.42438 19.9043 9.97884C20.0194 11.3681 20.0223 12.7573 19.9574 14.1465C19.9249 14.8519 19.8924 15.5604 19.7006 16.2473C19.4821 17.0359 19.0187 17.5564 18.2453 17.7351C17.9442 17.8029 17.6313 17.8275 17.3243 17.8398C15.7185 17.8983 14.1156 17.9507 12.5954 18ZM10.9631 14.4977C12.3091 13.7707 13.6404 13.0499 14.9983 12.3137C13.6433 11.5744 12.3121 10.8506 10.9631 10.1144C10.9631 11.5837 10.9631 13.0284 10.9631 14.4977Z" fill="#333333"/>
</svg>
